<svg width="204" height="520" viewBox="0 0 204 520" fill="none" xmlns="http://www.w3.org/2000/svg">
<path opacity="0.96" d="M105.126 2.15473C108.143 2.35374 110.749 3.33397 112.943 5.09543C115.172 6.85679 116.885 9.19169 118.081 12.1001C119.312 15.0431 119.938 18.3693 119.96 22.0785C119.981 25.6145 119.462 28.7013 118.403 31.3392C117.344 33.977 115.848 36.0441 113.916 37.5405C111.983 39.037 109.752 39.789 107.221 39.7965C105.245 39.8024 103.404 39.2879 101.7 38.2529C100.029 37.2179 98.3557 35.5762 96.6784 33.3279C95.001 31.0796 93.2154 28.1209 91.3216 24.4519L85.3267 13.1857L87.8716 12.6582L88.0394 40.9457L80.2395 40.9689L80.0137 2.90557L86.8777 2.88511L96.5969 19.6002C98.1381 22.2649 99.4504 24.341 100.534 25.8284C101.652 27.3504 102.681 28.422 103.621 29.0432C104.561 29.6644 105.568 29.9734 106.643 29.9702C107.752 29.9669 108.738 29.652 109.601 29.0254C110.464 28.4335 111.135 27.5302 111.613 26.3154C112.091 25.1006 112.325 23.5746 112.314 21.7373C112.301 19.5534 111.961 17.7517 111.294 16.3324C110.661 14.9129 109.806 13.8581 108.727 13.168C107.648 12.4779 106.467 12.0654 105.184 11.9306L105.126 2.15473ZM120.22 65.9783C120.258 72.2529 119.315 77.057 117.394 80.3908C115.472 83.7245 112.778 85.3965 109.311 85.4069C106.191 85.4162 103.808 83.9499 102.161 81.0082C100.549 78.101 99.8145 74.0298 99.9568 68.7947L100.997 68.7916C101.446 74.441 100.831 78.8455 99.1511 82.0051C97.5058 85.1647 94.8979 86.7498 91.3272 86.7605C87.5832 86.7716 84.6954 85.0122 82.6638 81.4823C80.6322 77.9523 79.5964 72.8247 79.5565 66.0995C79.517 59.4436 80.492 54.3274 82.4815 50.7508C84.4712 47.2089 87.338 45.4323 91.082 45.4212C94.6527 45.4105 97.2793 46.98 98.9621 50.1297C100.679 53.2792 101.347 57.6799 100.964 63.3317L99.9244 63.3348C99.72 58.1008 100.406 54.0081 101.984 51.0567C103.596 48.1399 105.962 46.6768 109.082 46.6675C112.548 46.6572 115.262 48.3131 117.223 51.6353C119.184 54.9574 120.183 59.7385 120.22 65.9783ZM87.0965 66.0771C87.1173 69.5783 87.5491 72.2464 88.392 74.0812C89.2349 75.916 90.4537 76.8311 92.0483 76.8263C93.6776 76.8214 94.8682 75.8992 95.6199 74.0597C96.4064 72.22 96.7892 69.5495 96.7684 66.0482C96.7477 62.547 96.3332 59.8789 95.525 58.0439C94.7516 56.2436 93.5503 55.3458 91.9209 55.3507C90.3263 55.3554 89.1183 56.2604 88.297 58.0655C87.4759 59.9053 87.0757 62.5758 87.0965 66.0771ZM103.736 66.0275C103.749 68.1074 103.915 69.8576 104.236 71.278C104.591 72.7329 105.1 73.8234 105.763 74.5494C106.461 75.2754 107.295 75.6369 108.265 75.634C109.687 75.6297 110.774 74.7945 111.527 73.1283C112.314 71.4966 112.699 69.1208 112.68 66.0008C112.662 62.9155 112.249 60.5421 111.442 58.8805C110.67 57.2188 109.573 56.3901 108.151 56.3943C107.181 56.3972 106.351 56.7637 105.662 57.4937C105.008 58.2583 104.511 59.3518 104.173 60.7742C103.87 62.2311 103.724 63.9822 103.736 66.0275ZM102.59 91.8651L102.668 105.125L94.9723 105.148L94.8937 91.8881L102.59 91.8651ZM105.761 109.2C108.778 109.399 111.384 110.379 113.578 112.14C115.807 113.902 117.52 116.237 118.716 119.145C119.946 122.088 120.573 125.414 120.595 129.124C120.616 132.659 120.097 135.746 119.038 138.384C117.979 141.022 116.483 143.089 114.551 144.586C112.618 146.082 110.386 146.834 107.856 146.841C105.88 146.847 104.039 146.333 102.335 145.298C100.664 144.263 98.9907 142.621 97.3133 140.373C95.636 138.125 93.8504 135.166 91.9566 131.497L85.9617 120.231L88.5066 119.703L88.6744 147.991L80.8744 148.014L80.6486 109.951L87.5126 109.93L97.2319 126.645C98.773 129.31 100.085 131.386 101.169 132.873C102.287 134.395 103.316 135.467 104.256 136.088C105.196 136.709 106.203 137.018 107.278 137.015C108.387 137.012 109.373 136.697 110.236 136.07C111.099 135.478 111.77 134.575 112.248 133.36C112.726 132.146 112.96 130.62 112.949 128.782C112.936 126.598 112.596 124.797 111.929 123.377C111.296 121.958 110.441 120.903 109.362 120.213C108.283 119.523 107.102 119.11 105.819 118.976L105.761 109.2ZM80.1801 171.221C80.1605 167.927 80.6458 164.997 81.6359 162.428C82.626 159.86 83.983 157.776 85.7069 156.176C87.431 154.611 89.3665 153.635 91.5136 153.247L91.5679 162.399C90.3923 162.922 89.4098 163.844 88.6202 165.163C87.8654 166.483 87.4955 168.408 87.5105 170.939C87.5267 173.677 88.0427 175.912 89.0583 177.642C90.0739 179.372 91.5201 180.651 93.3971 181.477C95.274 182.304 97.5471 182.713 100.216 182.705C103.128 182.696 105.57 182.221 107.54 181.279C109.511 180.337 110.993 178.963 111.988 177.158C112.983 175.387 113.472 173.201 113.457 170.601C113.446 168.764 113.177 167.205 112.649 165.924C112.156 164.677 111.457 163.726 110.552 163.07C109.682 162.449 108.675 162.14 107.531 162.143C106.456 162.146 105.487 162.444 104.624 163.036C103.795 163.628 103.142 164.531 102.664 165.746C102.22 166.96 102.004 168.452 102.014 170.219C102.029 172.681 102.58 174.984 103.667 177.131C104.789 179.277 106.343 181.179 108.329 182.837L105.958 186.276C103.837 185.242 101.922 183.844 100.213 182.081C98.5038 180.353 97.1397 178.311 96.1204 175.957C95.1357 173.603 94.6346 170.935 94.6169 167.954C94.5977 164.73 95.1013 161.955 96.1275 159.629C97.1884 157.303 98.6685 155.513 100.568 154.26C102.467 153.006 104.664 152.358 107.16 152.316C109.795 152.343 112.139 153.064 114.193 154.479C116.247 155.929 117.854 158.022 119.015 160.757C120.21 163.527 120.819 166.835 120.841 170.683C120.869 175.398 120.026 179.318 118.311 182.443C116.597 185.603 114.219 187.984 111.177 189.588C108.136 191.192 104.622 191.982 100.635 191.96C96.6836 192.006 93.1776 191.236 90.1175 189.651C87.0574 188.065 84.6342 185.733 82.8479 182.653C81.0963 179.572 80.207 175.762 80.1801 171.221ZM80.6679 200.864C80.6617 199.824 80.8987 198.87 81.3789 198.002C81.8593 197.169 82.5141 196.508 83.3432 196.02C84.207 195.533 85.1589 195.287 86.1989 195.284C87.2389 195.281 88.1763 195.521 89.0112 196.004C89.846 196.486 90.5086 197.143 90.9989 197.974C91.524 198.839 91.7897 199.791 91.7958 200.831C91.802 201.871 91.5476 202.808 91.0325 203.641C90.5521 204.475 89.8973 205.136 89.0682 205.623C88.2391 206.111 87.3046 206.357 86.2646 206.36C85.2246 206.363 84.2698 206.123 83.4003 205.64C82.5654 205.157 81.9028 204.501 81.4125 203.67C80.9223 202.84 80.6741 201.904 80.6679 200.864ZM100.321 209.032L100.377 218.6L98.9214 218.605C95.732 218.614 93.2748 219.315 91.5497 220.707C89.8593 222.098 89.0234 224.371 89.0421 227.526C89.0607 230.646 89.8887 232.897 91.5262 234.279C93.164 235.695 95.4215 236.399 98.2988 236.39L120.399 236.325L120.457 246.152L97.8891 246.22C94.2492 246.23 91.1245 245.46 88.5153 243.908C85.9407 242.355 83.969 240.16 82.6002 237.321C81.2315 234.517 80.5362 231.261 80.5142 227.551C80.4924 223.877 81.1666 220.651 82.5368 217.873C83.907 215.096 85.9049 212.941 88.5305 211.408C91.1908 209.874 94.3929 209.102 98.1369 209.091L100.321 209.032ZM80.7883 264.99C80.772 262.252 81.3127 259.893 82.4103 257.913C83.5428 255.969 85.1459 254.473 87.2198 253.427C89.2938 252.416 91.7521 251.906 94.5948 251.897L111.131 251.848L111.188 261.52L96.0561 261.565C93.6642 261.572 91.8302 262.149 90.5543 263.297C89.2785 264.445 88.6469 266.093 88.6597 268.243C88.6691 269.837 89.0065 271.188 89.6717 272.296C90.337 273.403 91.2953 274.25 92.5468 274.835C93.7985 275.455 95.2737 275.763 96.9723 275.758L95.3782 278.779C92.2562 278.441 89.5993 277.617 87.4075 276.306C85.2505 275.03 83.6115 273.406 82.4905 271.433C81.3697 269.495 80.8022 267.347 80.7883 264.99ZM81.6435 277.676L93.1764 275.769L111.272 275.715L111.329 285.335L91.7774 285.393L81.7009 287.347L81.6435 277.676ZM121.769 292.045L121.826 301.664L81.7865 301.784L81.7294 292.164L121.769 292.045ZM111.879 307.918L110.92 312.705L111.936 317.538L81.8805 317.627L81.8234 308.007L111.879 307.918ZM114.612 312.746C114.602 311.047 115.027 309.659 115.887 308.582C116.782 307.505 117.958 306.964 119.414 306.959C120.904 306.955 122.086 307.489 122.959 308.561C123.832 309.633 124.274 311.018 124.284 312.717C124.294 314.45 123.869 315.838 123.009 316.881C122.148 317.923 120.973 318.447 119.482 318.451C118.026 318.455 116.844 317.939 115.937 316.902C115.064 315.864 114.622 314.479 114.612 312.746ZM107.104 335.629C110.121 335.828 112.727 336.809 114.921 338.57C117.15 340.331 118.863 342.666 120.059 345.575C121.29 348.518 121.916 351.844 121.938 355.553C121.959 359.089 121.44 362.176 120.381 364.814C119.322 367.452 117.826 369.519 115.894 371.015C113.961 372.512 111.73 373.264 109.199 373.271C107.223 373.277 105.383 372.762 103.678 371.728C102.008 370.693 100.334 369.051 98.6564 366.803C96.979 364.554 95.1935 361.596 93.2997 357.926L87.3048 346.66L89.8497 346.133L90.0175 374.42L82.2175 374.444L81.9917 336.38L88.8557 336.36L98.575 353.075C100.116 355.739 101.428 357.816 102.512 359.303C103.63 360.825 104.659 361.897 105.599 362.518C106.539 363.139 107.546 363.448 108.621 363.445C109.73 363.442 110.716 363.127 111.579 362.5C112.442 361.908 113.113 361.005 113.591 359.79C114.069 358.575 114.303 357.049 114.292 355.212C114.279 353.028 113.939 351.226 113.272 349.807C112.639 348.388 111.784 347.333 110.705 346.643C109.626 345.952 108.445 345.54 107.162 345.405L107.104 335.629ZM81.5401 400.51C81.514 396.108 82.3407 392.292 84.0202 389.063C85.6998 385.834 88.0423 383.331 91.0478 381.554C94.088 379.777 97.6534 378.882 101.744 378.87C105.8 378.858 109.359 379.731 112.42 381.49C115.481 383.249 117.87 385.738 119.588 388.957C121.306 392.176 122.178 395.986 122.204 400.389C122.23 404.757 121.403 408.555 119.723 411.784C118.044 415.013 115.684 417.516 112.644 419.293C109.638 421.07 106.09 421.965 102 421.977C97.9437 421.989 94.3852 421.116 91.324 419.357C88.2629 417.598 85.8734 415.109 84.1556 411.89C82.4379 408.671 81.566 404.878 81.5401 400.51ZM89.5481 400.486C89.5701 404.196 90.6618 407.07 92.8233 409.108C94.9849 411.182 98.0244 412.213 101.942 412.201C105.859 412.19 108.886 411.141 111.023 409.054C113.16 407.003 114.218 404.122 114.196 400.413C114.174 396.704 113.082 393.812 110.92 391.739C108.759 389.665 105.719 388.634 101.802 388.646C97.8847 388.657 94.8575 389.706 92.7205 391.793C90.5836 393.879 89.5261 396.777 89.5481 400.486ZM107.64 426.12C110.658 426.319 113.263 427.299 115.458 429.061C117.687 430.822 119.4 433.157 120.596 436.065C121.826 439.008 122.453 442.334 122.475 446.044C122.496 449.58 121.977 452.667 120.918 455.304C119.859 457.942 118.363 460.009 116.43 461.506C114.498 463.002 112.266 463.754 109.736 463.762C107.76 463.768 105.919 463.253 104.214 462.218C102.544 461.183 100.871 459.541 99.1931 457.293C97.5158 455.045 95.7302 452.086 93.8364 448.417L87.8415 437.151L90.3864 436.623L90.5542 464.911L82.7543 464.934L82.5285 426.871L89.3924 426.85L99.1117 443.565C100.653 446.23 101.965 448.306 103.049 449.794C104.167 451.316 105.196 452.387 106.136 453.008C107.076 453.63 108.083 453.939 109.157 453.935C110.267 453.932 111.253 453.617 112.116 452.991C112.979 452.399 113.65 451.495 114.128 450.281C114.606 449.066 114.84 447.54 114.829 445.703C114.816 443.519 114.476 441.717 113.809 440.298C113.176 438.878 112.321 437.823 111.242 437.133C110.163 436.443 108.982 436.031 107.698 435.896L107.64 426.12ZM122.736 490.152C122.756 493.479 122.271 496.41 121.28 498.944C120.29 501.512 118.933 503.596 117.21 505.196C115.52 506.796 113.585 507.772 111.403 508.125L111.349 498.973C112.524 498.45 113.489 497.528 114.244 496.209C115.034 494.889 115.421 492.964 115.406 490.433C115.39 487.729 114.874 485.495 113.858 483.73C112.843 482 111.396 480.721 109.519 479.895C107.677 479.068 105.404 478.659 102.7 478.667C99.8227 478.676 97.3813 479.134 95.376 480.041C93.4056 480.983 91.923 482.357 90.9284 484.162C89.9338 485.968 89.4442 488.171 89.4596 490.771C89.4705 492.608 89.7223 494.15 90.215 495.396C90.7426 496.678 91.459 497.629 92.364 498.25C93.2692 498.906 94.2765 499.232 95.3858 499.229C96.4952 499.226 97.464 498.911 98.2923 498.284C99.1208 497.693 99.7569 496.807 100.201 495.627C100.679 494.447 100.913 492.938 100.902 491.101C100.887 488.674 100.319 486.388 99.197 484.242C98.1096 482.096 96.5729 480.194 94.5871 478.535L96.9584 475.044C99.1143 476.147 101.029 477.563 102.704 479.291C104.413 481.019 105.759 483.061 106.744 485.415C107.763 487.77 108.282 490.437 108.3 493.419C108.318 496.608 107.797 499.365 106.737 501.691C105.711 504.052 104.248 505.859 102.349 507.112C100.45 508.401 98.2521 509.049 95.7561 509.056C93.1215 509.064 90.7772 508.343 88.7232 506.893C86.6692 505.443 85.0448 503.351 83.8499 500.615C82.6897 497.88 82.098 494.571 82.075 490.689C82.047 485.974 82.8904 482.037 84.605 478.877C86.3198 475.752 88.6978 473.388 91.739 471.784C94.8151 470.215 98.3291 469.424 102.281 469.413C106.233 469.401 109.739 470.17 112.799 471.721C115.859 473.272 118.265 475.588 120.016 478.668C121.803 481.782 122.709 485.61 122.736 490.152Z" fill="white"/>
</svg>
