<svg width="125" height="125" viewBox="0 0 125 125" fill="none" xmlns="http://www.w3.org/2000/svg">
<g clip-path="url(#clip0_997_8)">
<path d="M86 23.6666C86.9389 23.6667 87.8451 24.0115 88.5468 24.6354C89.2484 25.2593 89.6966 26.119 89.8065 27.0515L89.8333 27.5V42.8333C89.8332 43.7722 89.4885 44.6784 88.8646 45.3801C88.2407 46.0817 87.381 46.5299 86.4485 46.6398L86 46.6666H74.5V50.5H86C86.5457 50.5002 87.085 50.6169 87.582 50.8423C88.079 51.0677 88.5221 51.3966 88.8817 51.807C89.2413 52.2175 89.5091 52.6999 89.6673 53.2222C89.8255 53.7445 89.8703 54.2945 89.7988 54.8355L89.7222 55.2648L85.8888 70.5981C85.6986 71.3552 85.2817 72.0362 84.6939 72.55C84.1062 73.0637 83.3756 73.3858 82.5998 73.4731L82.1667 73.5H74.5V96.5C74.4999 97.4389 74.1552 98.3451 73.5313 99.0467C72.9073 99.7484 72.0476 100.197 71.1152 100.306L70.6667 100.333H55.3333C54.3944 100.333 53.4882 99.9885 52.7866 99.3645C52.0849 98.7406 51.6367 97.8809 51.5268 96.9485L51.5 96.5V73.5H43.8333C42.8944 73.4998 41.9882 73.1551 41.2866 72.5312C40.5849 71.9073 40.1367 71.0476 40.0268 70.1151L40 69.6666V54.3333C40.0001 53.3944 40.3448 52.4882 40.9687 51.7865C41.5927 51.0849 42.4524 50.6366 43.3848 50.5268L43.8333 50.5H51.5V46.6666C51.4998 40.7158 53.806 34.9966 57.9341 30.7105C62.0622 26.4244 67.6909 23.9051 73.6375 23.682L74.5 23.6666H86Z" fill="white"/>
</g>
<circle cx="62.5" cy="62.5" r="60" stroke="white" stroke-width="5"/>
<defs>
<clipPath id="clip0_997_8">
<rect width="92" height="92" fill="white" transform="translate(17 16)"/>
</clipPath>
</defs>
</svg>
