<svg width="125" height="125" viewBox="0 0 125 125" fill="none" xmlns="http://www.w3.org/2000/svg">
<g clip-path="url(#clip0_997_7)">
<path d="M78.3333 27.5C83.4166 27.5 88.2918 29.5193 91.8862 33.1138C95.4807 36.7082 97.5 41.5834 97.5 46.6667V77.3333C97.5 82.4166 95.4807 87.2918 91.8862 90.8862C88.2918 94.4807 83.4166 96.5 78.3333 96.5H47.6667C42.5834 96.5 37.7082 94.4807 34.1138 90.8862C30.5193 87.2918 28.5 82.4166 28.5 77.3333V46.6667C28.5 41.5834 30.5193 36.7082 34.1138 33.1138C37.7082 29.5193 42.5834 27.5 47.6667 27.5H78.3333ZM63 46.6667C59.0661 46.6667 55.2826 48.1787 52.4322 50.8899C49.5818 53.6012 47.8825 57.3043 47.6858 61.2333L47.6667 62C47.6667 65.0326 48.566 67.9972 50.2508 70.5187C51.9356 73.0403 54.3304 75.0056 57.1322 76.1662C59.934 77.3267 63.017 77.6303 65.9914 77.0387C68.9658 76.4471 71.6979 74.9867 73.8423 72.8423C75.9867 70.6979 77.4471 67.9658 78.0387 64.9914C78.6303 62.017 78.3267 58.934 77.1662 56.1322C76.0056 53.3304 74.0403 50.9356 71.5187 49.2508C68.9972 47.566 66.0326 46.6667 63 46.6667ZM80.25 40.9167C79.3111 40.9168 78.4049 41.2615 77.7032 41.8854C77.0016 42.5093 76.5534 43.369 76.4435 44.3015L76.4167 44.7883C76.4177 45.7654 76.7919 46.7051 77.4626 47.4156C78.1333 48.126 79.05 48.5536 80.0253 48.6108C81.0007 48.6681 81.9611 48.3507 82.7104 47.7236C83.4596 47.0966 83.9411 46.207 84.0565 45.2368L84.0833 44.75C84.0833 43.7333 83.6795 42.7583 82.9606 42.0394C82.2417 41.3205 81.2667 40.9167 80.25 40.9167Z" fill="white"/>
</g>
<circle cx="62.5" cy="62.5" r="60" stroke="white" stroke-width="5"/>
<defs>
<clipPath id="clip0_997_7">
<rect width="92" height="92" fill="white" transform="translate(17 16)"/>
</clipPath>
</defs>
</svg>
