<svg width="480" height="200" viewBox="0 0 480 200" fill="none" xmlns="http://www.w3.org/2000/svg">
<path d="M8.4 40.5H39.15V156H8.4V40.5ZM70.5 67.8C78.8 67.8 85.8 69.45 91.5 72.75C97.3 76.05 101.75 80.7 104.85 86.7C107.95 92.7 109.5 99.8 109.5 108V156H78.75V112.5C78.75 106.1 77.1 101.2 73.8 97.8C70.6 94.4 65.95 92.7 59.85 92.7C55.65 92.7 51.95 93.6 48.75 95.4C45.65 97.2 43.25 99.75 41.55 103.05C39.95 106.35 39.15 110.25 39.15 114.75L29.55 109.8C30.75 100.7 33.3 93.05 37.2 86.85C41.1 80.55 45.9 75.8 51.6 72.6C57.4 69.4 63.7 67.8 70.5 67.8ZM336.216 128.1C336.216 134.7 334.216 140.25 330.216 144.75C326.216 149.25 320.516 152.65 313.116 154.95C305.716 157.25 296.816 158.4 286.416 158.4C275.716 158.4 266.316 157.1 258.216 154.5C250.216 151.9 243.966 148.25 239.466 143.55C234.966 138.85 232.566 133.4 232.266 127.2H263.316C264.016 129.5 265.366 131.5 267.366 133.2C269.466 134.8 272.216 136.05 275.616 136.95C279.016 137.75 283.066 138.15 287.766 138.15C293.866 138.15 298.466 137.55 301.566 136.35C304.766 135.15 306.366 133.35 306.366 130.95C306.366 129.05 305.166 127.65 302.766 126.75C300.366 125.75 296.266 125 290.466 124.5L275.316 123.3C265.216 122.6 257.166 121.1 251.166 118.8C245.266 116.4 241.016 113.35 238.416 109.65C235.816 105.85 234.516 101.55 234.516 96.75C234.516 90.25 236.516 84.9 240.516 80.7C244.616 76.4 250.266 73.2 257.466 71.1C264.766 68.9 273.266 67.8 282.966 67.8C292.566 67.8 301.116 69.05 308.616 71.55C316.116 74.05 322.116 77.55 326.616 82.05C331.116 86.45 333.716 91.65 334.416 97.65H303.366C302.866 95.75 301.766 94.05 300.066 92.55C298.366 90.95 296.016 89.65 293.016 88.65C290.016 87.65 286.166 87.15 281.466 87.15C275.966 87.15 271.766 87.75 268.866 88.95C266.066 90.15 264.666 91.85 264.666 94.05C264.666 95.75 265.516 97.1 267.216 98.1C269.016 99.1 272.316 99.8 277.116 100.2L297.066 101.7C306.966 102.3 314.766 103.75 320.466 106.05C326.166 108.25 330.216 111.2 332.616 114.9C335.016 118.6 336.216 123 336.216 128.1ZM340.304 93V79.65L357.704 72.6L370.904 47.25H388.304V70.35H424.304V93H388.304V118.2C388.304 124.4 389.554 128.75 392.054 131.25C394.554 133.75 399.104 135 405.704 135C409.904 135 413.604 134.65 416.804 133.95C420.104 133.15 423.104 132.15 425.804 130.95V154.05C422.804 155.15 418.854 156.15 413.954 157.05C409.054 157.95 404.004 158.4 398.804 158.4C389.304 158.4 381.504 156.95 375.404 154.05C369.404 151.15 364.954 147 362.054 141.6C359.154 136.1 357.704 129.7 357.704 122.4V93H340.304Z" fill="white"/>
<path d="M219.506 56.5C223.187 56.5 226.784 56.8351 230.271 57.457C205.243 63.8586 186.804 85.3786 186.804 111C186.804 136.621 205.243 158.14 230.271 164.542C226.784 165.164 223.187 165.5 219.506 165.5C187.47 165.5 161.553 141.071 161.553 111C161.553 80.9289 187.47 56.5001 219.506 56.5Z" fill="white" stroke="white"/>
<path d="M171.579 154C196.577 154 216.842 134.748 216.842 111C216.842 87.2518 196.577 68 171.579 68C146.581 68 126.316 87.2518 126.316 111C126.316 134.748 146.581 154 171.579 154Z" stroke="white" stroke-width="20" stroke-miterlimit="10"/>
</svg>
