<svg width="125" height="125" viewBox="0 0 125 125" fill="none" xmlns="http://www.w3.org/2000/svg">
<g clip-path="url(#clip0_997_10)">
<path d="M78.6516 23.6666H63.0001C61.9834 23.6666 61.0084 24.0705 60.2895 24.7894C59.5706 25.5083 59.1667 26.4833 59.1667 27.5V71.5833C59.1672 72.5384 58.9298 73.4785 58.4758 74.3189C58.0219 75.1592 57.3658 75.8732 56.5668 76.3965C55.7678 76.9197 54.8511 77.2357 53.8993 77.3159C52.9476 77.396 51.9909 77.2379 51.1156 76.8556C50.2404 76.4734 49.4741 75.8792 48.886 75.1266C48.2979 74.3741 47.9066 73.4869 47.7473 72.5451C47.588 71.6034 47.6658 70.6369 47.9736 69.7328C48.2815 68.8286 48.8097 68.0154 49.5106 67.3666L49.9706 66.9833C50.4459 66.6258 50.8316 66.1626 51.0971 65.6304C51.3625 65.0981 51.5005 64.5114 51.5001 63.9166V47.3336C51.5005 46.755 51.37 46.1838 51.1183 45.6628C50.8665 45.1418 50.5001 44.6845 50.0465 44.3253C49.5928 43.9661 49.0638 43.7142 48.4989 43.5886C47.9341 43.463 47.3482 43.4669 46.7851 43.6C39.9199 45.2179 33.889 49.3031 29.8398 55.0783C25.7906 60.8535 24.0056 67.9156 24.8245 74.9212C25.6434 81.9268 29.009 88.3869 34.281 93.0725C39.553 97.7582 46.3634 100.342 53.4167 100.333L54.3482 100.314C61.8073 100.072 68.88 96.9395 74.0713 91.578C79.2626 86.2164 82.1657 79.0463 82.1667 71.5833V61.2333L83.3589 61.8198C87.6599 63.8515 92.3021 65.1471 97.1206 65.6263C97.6536 65.6793 98.1919 65.62 98.7006 65.4523C99.2094 65.2845 99.6773 65.0119 100.074 64.6522C100.471 64.2925 100.788 63.8535 101.005 63.3637C101.222 62.8738 101.334 62.344 101.333 61.8083V46.3485C101.333 45.4422 101.012 44.5653 100.427 43.8734C99.8416 43.1814 99.0301 42.7192 98.1364 42.5688C94.2137 41.9032 90.5949 40.0345 87.7811 37.2214C84.9674 34.4083 83.0978 30.79 82.4312 26.8675C82.2816 25.9731 81.8197 25.1607 81.1277 24.5747C80.4357 23.9886 79.5584 23.6669 78.6516 23.6666Z" fill="white"/>
</g>
<circle cx="62.5" cy="62.5" r="60" stroke="white" stroke-width="5"/>
<defs>
<clipPath id="clip0_997_10">
<rect width="92" height="92" fill="white" transform="translate(17 16)"/>
</clipPath>
</defs>
</svg>
