<svg width="125" height="125" viewBox="0 0 125 125" fill="none" xmlns="http://www.w3.org/2000/svg">
<g clip-path="url(#clip0_997_9)">
<path d="M82.1666 28.8034C87.9941 32.1678 92.8332 37.007 96.1977 42.8344C99.5621 48.6619 101.333 55.2723 101.333 62.0013C101.333 68.7302 99.5619 75.3406 96.1974 81.168C92.8329 86.9954 87.9937 91.8345 82.1662 95.1989C76.3387 98.5633 69.7283 100.334 62.9994 100.334C56.2704 100.334 49.66 98.5629 43.8327 95.1983C38.0053 91.8337 33.1662 86.9944 29.8019 81.1669C26.4375 75.3394 24.6665 68.729 24.6666 62L24.6858 60.758C24.9005 54.1378 26.8269 47.6862 30.2772 42.0322C33.7276 36.3781 38.5841 31.7146 44.3734 28.4963C50.1626 25.2779 56.687 23.6146 63.3105 23.6684C69.9339 23.7222 76.4304 25.4914 82.1666 28.8034ZM73.856 73.2892C68.9301 65.9024 57.1656 65.1165 49.3725 70.3107C48.5266 70.875 47.9395 71.7521 47.7404 72.7492C47.5413 73.7463 47.7464 74.7817 48.3106 75.6275C48.8749 76.4734 49.752 77.0605 50.7491 77.2596C51.7462 77.4587 52.7816 77.2536 53.6275 76.6894C58.2083 73.6342 65.1811 74.1019 67.4773 77.5442C67.7567 77.963 68.1158 78.3227 68.5342 78.6028C68.9526 78.8828 69.4221 79.0777 69.9158 79.1763C70.4095 79.2749 70.9178 79.2753 71.4117 79.1774C71.9055 79.0796 72.3753 78.8854 72.7941 78.606C73.213 78.3266 73.5727 77.9675 73.8527 77.5491C74.1327 77.1307 74.3276 76.6612 74.4262 76.1675C74.5248 75.6738 74.5252 75.1655 74.4273 74.6716C74.3295 74.1778 74.1353 73.708 73.856 73.2892ZM78.7166 60.85C69.2521 53.7507 56.1191 52.4665 45.7193 58.5922C44.8429 59.1087 44.2076 59.9521 43.9531 60.937C43.6987 61.9219 43.8458 62.9675 44.3623 63.8439C44.8788 64.7202 45.7222 65.3555 46.7071 65.61C47.692 65.8645 48.7376 65.7173 49.614 65.2009C57.227 60.712 67.0326 61.6742 74.1166 66.9834C74.93 67.5934 75.9523 67.8553 76.9587 67.7115C77.9652 67.5677 78.8733 67.03 79.4833 66.2167C80.0933 65.4034 80.3552 64.381 80.2114 63.3746C80.0677 62.3681 79.53 61.46 78.7166 60.85ZM84.1983 49.166C70.1031 40.357 54.4286 40.9167 42.1198 47.073C41.243 47.5458 40.5847 48.3414 40.2843 49.2912C39.984 50.241 40.0651 51.2704 40.5106 52.1614C40.9561 53.0524 41.7309 53.7349 42.671 54.0645C43.611 54.3941 44.6425 54.3448 45.5468 53.927C55.6476 48.8785 68.5353 48.4185 80.135 55.6674C80.9971 56.2062 82.038 56.3805 83.0286 56.1519C84.0192 55.9233 84.8785 55.3105 85.4173 54.4484C85.9561 53.5862 86.1304 52.5454 85.9018 51.5547C85.6732 50.5641 85.0604 49.7049 84.1983 49.166Z" fill="white"/>
</g>
<circle cx="62.5" cy="62.5" r="60" stroke="white" stroke-width="5"/>
<defs>
<clipPath id="clip0_997_9">
<rect width="92" height="92" fill="white" transform="translate(17 16)"/>
</clipPath>
</defs>
</svg>
